<svg version="1.1" xmlns="http://www.w3.org/2000/svg" viewBox="0 0 3054.4530712148453 2000.7354159035028" width="3054.4530712148453" height="2000.7354159035028">
  <!-- svg-source:excalidraw -->
  
  <defs>
    <style class="style-fonts">
      @font-face {
        font-family: "Virgil";
        src: url("https://excalidraw.com/Virgil.woff2");
      }
      @font-face {
        font-family: "Cascadia";
        src: url("https://excalidraw.com/Cascadia.woff2");
      }
    </style>
  </defs>
  <rect x="0" y="0" width="3054.4530712148453" height="2000.7354159035028" fill="#ffffff"></rect><g stroke-linecap="round" transform="translate(78.27729963539718 150.04129302117326) rotate(0 297.5 83)"><path d="M0.24 0.58 C140.48 -1.15, 280.49 -0.61, 595.73 0.78 M0.39 0.11 C174.36 -0.16, 347.86 0.05, 594.79 -0.34 M593.96 1.67 C597.59 53.92, 594.88 107.47, 594.56 167.4 M594.78 0.61 C593.33 42.63, 593.52 85.36, 594.43 165.33 M594.6 165.94 C424.68 163.98, 252.4 164.53, -0.49 166.51 M594.95 166.36 C448.88 166.65, 302.19 167.16, -0.13 165.71 M0.68 166.71 C2.46 125.21, 2.29 84.64, 0.49 -0.42 M-0.91 165.43 C0.55 125.41, -0.37 86.48, -0.1 0.25" stroke="#000000" stroke-width="1" fill="none"></path></g><g transform="translate(118.27729963539718 215.54129302117326) rotate(0 257.5 17.5)"><text x="257.5" y="24" font-family="Virgil, Segoe UI Emoji" font-size="28px" fill="#000000" text-anchor="middle" style="white-space: pre;" direction="ltr">Frontend makes request to /initialize</text></g><g stroke-linecap="round" transform="translate(66.89763807175973 379.2577663873708) rotate(0 310.5 104.5)"><path d="M-0.31 -0.4 C164.39 -0.06, 329.24 -0.38, 621.78 0.5 M-0.21 0.38 C227.04 -1.78, 454.13 -1.26, 621.27 -0.08 M621.34 0.9 C621.84 47.91, 621.88 99.13, 620.42 210.49 M620.5 0.39 C618.82 50.1, 619.03 101.62, 620.63 209.25 M620.69 209.72 C484.22 210.78, 347.42 211.67, 0.39 208.48 M621.29 208.65 C425.4 207.43, 229.57 207.44, -0.35 208.83 M-1.7 208.98 C0.88 134.25, 0.15 59.9, 0.31 1.22 M0.3 209.13 C2.07 153.6, 1.38 99.09, 0.2 -0.03" stroke="#000000" stroke-width="1" fill="none"></path></g><g transform="translate(87.89763807175973 431.2577663873708) rotate(0 289.5 52.5)"><text x="289.5" y="24" font-family="Virgil, Segoe UI Emoji" font-size="28px" fill="#000000" text-anchor="middle" style="white-space: pre;" direction="ltr">Mark the projectId from the request as </text><text x="289.5" y="59" font-family="Virgil, Segoe UI Emoji" font-size="28px" fill="#000000" text-anchor="middle" style="white-space: pre;" direction="ltr">starting up in the database to ensure </text><text x="289.5" y="94" font-family="Virgil, Segoe UI Emoji" font-size="28px" fill="#000000" text-anchor="middle" style="white-space: pre;" direction="ltr">idempotency for further requests.</text></g><g stroke-linecap="round" transform="translate(71.77473156280848 649.1153460194508) rotate(0 306 80)"><path d="M0.52 -0.24 C206.94 1.94, 413.25 2.36, 611.39 -0.54 M-0.38 0.2 C147.71 -2.16, 294.37 -2.62, 611.86 -0.07 M611.97 -0.07 C612.87 39.49, 612.52 76.88, 611.01 161.77 M611.21 0.05 C612.43 63.98, 612.41 127.13, 612.31 160.21 M612.37 159.3 C420.18 158.75, 227.93 158.06, -0.08 160.71 M611.7 160.1 C395.99 160.22, 179.71 160.1, 0.21 160.05 M1.04 161.16 C-0.61 99.73, -1.81 40.96, 0.45 0.52 M-0.03 159.04 C0.68 124.94, 1.99 88.33, -0.62 0.31" stroke="#000000" stroke-width="1" fill="none"></path></g><g transform="translate(119.77473156280848 711.6153460194508) rotate(0 258 17.5)"><text x="258" y="24" font-family="Virgil, Segoe UI Emoji" font-size="28px" fill="#000000" text-anchor="middle" style="white-space: pre;" direction="ltr">Create EC2 Instance using AWS API</text></g><g stroke-linecap="round" transform="translate(71.77465714653863 863.7008737857163) rotate(0 304 109.99999999999997)"><path d="M-0.12 0.26 C172.59 -1.91, 345.34 -2, 607.47 0.21 M0.29 0.02 C135.84 -0.23, 271.57 -0.44, 608.19 0.13 M607.03 -1.7 C610.03 66.02, 610.28 130.04, 607.22 219.06 M607.64 0.3 C608.67 50.1, 609.15 98.35, 608.35 220.51 M608.51 220.32 C480.32 217.72, 351.48 218.8, 0.43 220.54 M607.82 219.88 C377.26 217.86, 146.11 217.74, 0.11 220.18 M-0.41 221.51 C0.82 134.14, 1.5 48.73, 1.56 -1.4 M0.16 220.13 C-0.05 175.24, 0.09 131.12, -0.19 0.67" stroke="#000000" stroke-width="1" fill="none"></path></g><g transform="translate(79.27092380445242 868.7008737857163) rotate(0 296.5 104.99999999999997)"><text x="296.5" y="24" font-family="Virgil, Segoe UI Emoji" font-size="28px" fill="#000000" text-anchor="middle" style="white-space: pre;" direction="ltr">Wait for instance to be ready using </text><text x="296.5" y="59" font-family="Virgil, Segoe UI Emoji" font-size="28px" fill="#000000" text-anchor="middle" style="white-space: pre;" direction="ltr">recursive calls every 5 seconds, max: 10 </text><text x="296.5" y="94" font-family="Virgil, Segoe UI Emoji" font-size="28px" fill="#000000" text-anchor="middle" style="white-space: pre;" direction="ltr">times.</text><text x="296.5" y="129" font-family="Virgil, Segoe UI Emoji" font-size="28px" fill="#000000" text-anchor="middle" style="white-space: pre;" direction="ltr"></text><text x="296.5" y="164" font-family="Virgil, Segoe UI Emoji" font-size="28px" fill="#000000" text-anchor="middle" style="white-space: pre;" direction="ltr">If the instance isn't ready till then, throw</text><text x="296.5" y="199" font-family="Virgil, Segoe UI Emoji" font-size="28px" fill="#000000" text-anchor="middle" style="white-space: pre;" direction="ltr">error.</text></g><g stroke-linecap="round" transform="translate(75.02590397469817 1143.3124543592196) rotate(0 304 127.5)"><path d="M0.74 0.31 C227.88 1.32, 456.96 1.2, 608.7 -0.5 M0.02 -0.33 C193.39 -1.37, 387.18 -1.53, 607.72 -0.11 M607.86 1.06 C606.12 91.99, 607.39 183.89, 608.93 255.5 M607.65 0.73 C606.46 62.3, 605.59 123.19, 608.71 255.24 M607.56 255.14 C410.7 256.72, 214.69 257.08, -0.23 254.82 M608.37 255.3 C438.21 254.2, 269 254.23, -0.02 255.1 M-1.15 254.4 C-0.73 166.68, -0.12 80.87, -0.54 -0.48 M0.38 255.41 C0.75 160.93, -0.06 66.05, 0.67 0.37" stroke="#000000" stroke-width="1" fill="none"></path></g><g transform="translate(83.52217063261173 1148.3124543592196) rotate(0 295.5 122.5)"><text x="295.5" y="24" font-family="Virgil, Segoe UI Emoji" font-size="28px" fill="#000000" text-anchor="middle" style="white-space: pre;" direction="ltr">Once the EC2 instance is ready, wait for </text><text x="295.5" y="59" font-family="Virgil, Segoe UI Emoji" font-size="28px" fill="#000000" text-anchor="middle" style="white-space: pre;" direction="ltr">instancce to pass health checks using </text><text x="295.5" y="94" font-family="Virgil, Segoe UI Emoji" font-size="28px" fill="#000000" text-anchor="middle" style="white-space: pre;" direction="ltr">recursive API calls to AWS for status </text><text x="295.5" y="129" font-family="Virgil, Segoe UI Emoji" font-size="28px" fill="#000000" text-anchor="middle" style="white-space: pre;" direction="ltr">every 10 seconds, max: 10 times.</text><text x="295.5" y="164" font-family="Virgil, Segoe UI Emoji" font-size="28px" fill="#000000" text-anchor="middle" style="white-space: pre;" direction="ltr"></text><text x="295.5" y="199" font-family="Virgil, Segoe UI Emoji" font-size="28px" fill="#000000" text-anchor="middle" style="white-space: pre;" direction="ltr">If it doesn't come up till then, throw </text><text x="295.5" y="234" font-family="Virgil, Segoe UI Emoji" font-size="28px" fill="#000000" text-anchor="middle" style="white-space: pre;" direction="ltr">error.</text></g><g stroke-linecap="round" transform="translate(71.77465714653863 1459.9073954965886) rotate(0 309 197.5)"><path d="M-0.04 -0.62 C238.71 -0.46, 478.41 -0.66, 618.38 -0.51 M-0.2 -0.29 C144.54 -1.04, 288.99 -1.13, 618.24 -0.07 M619 1.01 C615.72 82.94, 615.76 167.64, 618.04 395.35 M617.82 -0.53 C617.09 129.88, 617.14 260.72, 617.87 394.91 M617.71 394.43 C480.06 393.85, 342.87 393.87, -0.21 395.18 M617.67 395.16 C400.67 397.15, 183.3 397.37, -0.02 394.63 M0.8 395.85 C-0.83 251.53, -0.73 106.54, 0.35 0.3 M-0.34 394.68 C-2.26 304.29, -1.95 213.7, 0.41 0.3" stroke="#000000" stroke-width="1" fill="none"></path></g><g transform="translate(77.64779404669162 1464.9073954965886) rotate(0 303 192.5)"><text x="303" y="24" font-family="Virgil, Segoe UI Emoji" font-size="28px" fill="#000000" text-anchor="middle" style="white-space: pre;" direction="ltr">Once the EC2 instance has passed health </text><text x="303" y="59" font-family="Virgil, Segoe UI Emoji" font-size="28px" fill="#000000" text-anchor="middle" style="white-space: pre;" direction="ltr">checks, create temporary project files </text><text x="303" y="94" font-family="Virgil, Segoe UI Emoji" font-size="28px" fill="#000000" text-anchor="middle" style="white-space: pre;" direction="ltr">locally, SSH into the instance using </text><text x="303" y="129" font-family="Virgil, Segoe UI Emoji" font-size="28px" fill="#000000" text-anchor="middle" style="white-space: pre;" direction="ltr">node-ssH and copy the files.</text><text x="303" y="164" font-family="Virgil, Segoe UI Emoji" font-size="28px" fill="#000000" text-anchor="middle" style="white-space: pre;" direction="ltr"></text><text x="303" y="199" font-family="Virgil, Segoe UI Emoji" font-size="28px" fill="#000000" text-anchor="middle" style="white-space: pre;" direction="ltr">Expose Environment variables configured by </text><text x="303" y="234" font-family="Virgil, Segoe UI Emoji" font-size="28px" fill="#000000" text-anchor="middle" style="white-space: pre;" direction="ltr">the user for the project.</text><text x="303" y="269" font-family="Virgil, Segoe UI Emoji" font-size="28px" fill="#000000" text-anchor="middle" style="white-space: pre;" direction="ltr"></text><text x="303" y="304" font-family="Virgil, Segoe UI Emoji" font-size="28px" fill="#000000" text-anchor="middle" style="white-space: pre;" direction="ltr">Clone the app-runner folder from GitHub, </text><text x="303" y="339" font-family="Virgil, Segoe UI Emoji" font-size="28px" fill="#000000" text-anchor="middle" style="white-space: pre;" direction="ltr">install dependencies and spawn the </text><text x="303" y="374" font-family="Virgil, Segoe UI Emoji" font-size="28px" fill="#000000" text-anchor="middle" style="white-space: pre;" direction="ltr">app-runner script.</text></g><g stroke-linecap="round" transform="translate(10 110.2129240460606) rotate(0 373.08630358408095 901.4219687212106)"><path d="M0.67 0.53 C203.98 2.73, 408.72 2.11, 745.76 0.68 M-0.25 -0.35 C225.14 2.85, 450.12 2.24, 746.32 -0.11 M746.51 -0.59 C740.11 448.87, 741.13 895.98, 746.24 1802.61 M746.19 0.16 C740.7 628.22, 740.48 1256.67, 746.1 1802.6 M746.46 1803.52 C543.46 1801.09, 340.93 1801.15, 0.35 1802.08 M746.02 1802.68 C595.99 1804.3, 445.8 1804.32, 0.37 1802.56 M0.61 1802.38 C-0.22 1241.38, -0.42 678.7, 0.52 0 M-0.37 1802.9 C5.5 1342.81, 5.38 882.64, -0.38 -0.28" stroke="#000000" stroke-width="1" fill="none"></path></g><g transform="translate(23.902848633207213 40.00239985099125) rotate(0 56 17.5)"><text x="56" y="25" font-family="Virgil, Segoe UI Emoji" font-size="28px" fill="#000000" text-anchor="middle" style="white-space: pre;" direction="ltr">Backend</text></g><g stroke-linecap="round" transform="translate(965.2090335421249 76.88712314353677) rotate(0 290.5143041522555 676.2605457903915)"><path d="M-0.41 0.01 C119.85 0.8, 240.02 1.96, 581.49 0.51 M-0.11 -0.22 C185.81 0.03, 372.1 0.03, 581.07 0.16 M581.52 0.76 C584.82 380.12, 584.15 759.23, 580.63 1352.6 M580.95 0.35 C576.64 374.79, 577.07 749.93, 581.21 1352.72 M581.65 1352.58 C434.06 1352.5, 287.5 1352.36, 0.59 1353.03 M581.03 1352.39 C436.99 1351.51, 293.55 1351.45, 0.08 1352.35 M-0.7 1353.09 C-3.53 1002.73, -3.65 652, -0.77 0.68 M-0.26 1352.91 C4.03 932.51, 3.6 511.65, 0.15 -0.02" stroke="#000000" stroke-width="1" fill="none"></path></g><g transform="translate(965.1791461164312 23.745868045114435) rotate(0 121 17.5)"><text x="121" y="25" font-family="Virgil, Segoe UI Emoji" font-size="28px" fill="#000000" text-anchor="middle" style="white-space: pre;" direction="ltr">App Runner Script</text></g><g stroke-linecap="round" transform="translate(995.7377334157798 499.17875204772037) rotate(0 260.9165392302368 86.15938043908398)"><path d="M0.69 -0.61 C166.94 0.53, 334.43 0.07, 521.51 0.33 M0.3 0.19 C105.41 0.24, 211.4 0.23, 522.13 0.14 M522.21 -0.07 C521.53 57.97, 518.6 113.86, 522 174.01 M522.73 -0.06 C520.87 67.13, 520.26 134.89, 522.69 171.78 M521.87 172.22 C399.97 171.29, 276.93 171.85, -0.41 172.21 M521.93 172.43 C407.74 172.35, 293.48 172.24, -0.18 172.4 M-0.31 171.46 C0.32 118.27, -1.98 60.63, -0.06 0.81 M-0.99 171.95 C1.85 119.47, 2.17 65.15, 0.73 0.04" stroke="#000000" stroke-width="1" fill="none"></path></g><g transform="translate(1013.1542726460164 550.3381324868044) rotate(0 243.5 35)"><text x="243.5" y="24" font-family="Virgil, Segoe UI Emoji" font-size="28px" fill="#000000" text-anchor="middle" style="white-space: pre;" direction="ltr">Use child_process' spawn command </text><text x="243.5" y="59" font-family="Virgil, Segoe UI Emoji" font-size="28px" fill="#000000" text-anchor="middle" style="white-space: pre;" direction="ltr">to spawn the app process.</text></g><g stroke-linecap="round" transform="translate(995.5813677643621 697.1986281054882) rotate(0 261 106)"><path d="M0.25 -0.78 C177 -0.11, 353.34 0.09, 521.89 0.44 M0.32 0.1 C178.12 -2.22, 357.06 -1.69, 522.36 -0.28 M523.17 1.5 C519.11 71.62, 519.87 147.82, 522.58 212.13 M521.15 0.1 C523.69 50.98, 522.69 103.75, 521.55 211.17 M521.79 211.87 C353.43 212.97, 185.4 213.24, -0.05 211.91 M521.74 211.63 C402.65 213.67, 282.8 213.68, -0.24 212.09 M-0.2 212.82 C-0.4 131.62, 0.01 52.16, 0.7 -0.05 M-0.34 211.12 C0.31 168.84, 0.02 125.94, 0.69 -0.47" stroke="#000000" stroke-width="1" fill="none"></path></g><g transform="translate(1003.0813677643621 715.6986281054882) rotate(0 253.5 87.5)"><text x="253.5" y="24" font-family="Virgil, Segoe UI Emoji" font-size="28px" fill="#000000" text-anchor="middle" style="white-space: pre;" direction="ltr">Mount a listener for stdour and </text><text x="253.5" y="59" font-family="Virgil, Segoe UI Emoji" font-size="28px" fill="#000000" text-anchor="middle" style="white-space: pre;" direction="ltr">stderr for the app processes. In </text><text x="253.5" y="94" font-family="Virgil, Segoe UI Emoji" font-size="28px" fill="#000000" text-anchor="middle" style="white-space: pre;" direction="ltr">the callback, use the output to </text><text x="253.5" y="129" font-family="Virgil, Segoe UI Emoji" font-size="28px" fill="#000000" text-anchor="middle" style="white-space: pre;" direction="ltr">send pings to backend socket to be </text><text x="253.5" y="164" font-family="Virgil, Segoe UI Emoji" font-size="28px" fill="#000000" text-anchor="middle" style="white-space: pre;" direction="ltr">forwarded to the client.</text></g><g stroke-linecap="round" transform="translate(996.7684444329177 113.46420808235484) rotate(0 258.5 71.52852785948926)"><path d="M0.38 0.74 C126.68 -0.22, 251.94 -1.67, 516.2 -0.6 M-0.2 0.35 C134.3 0.91, 268.11 0.27, 517.15 0.23 M518.28 -0.83 C515.86 45.25, 515.85 86.63, 516.2 142.57 M517.56 -0.71 C516.92 34.6, 516.52 69.04, 517.24 142.72 M517.34 142.31 C338.49 142.7, 160.03 142.21, 0.23 142.9 M517.04 143.08 C350.34 141.84, 183.01 141.83, -0.14 143.03 M1.35 143.05 C1.94 111.9, 2.53 78.96, -0.99 -1.49 M0.39 143.04 C1.37 92.58, 1.65 42.73, 0.91 -0.7" stroke="#000000" stroke-width="1" fill="none"></path></g><g transform="translate(1074.2465113339001 149.9927359418441) rotate(0 181 35)"><text x="181" y="24" font-family="Virgil, Segoe UI Emoji" font-size="28px" fill="#000000" text-anchor="middle" style="white-space: pre;" direction="ltr">Connect to backend using </text><text x="181" y="59" font-family="Virgil, Segoe UI Emoji" font-size="28px" fill="#000000" text-anchor="middle" style="white-space: pre;" direction="ltr">socket.io-client</text></g><g stroke-linecap="round" transform="translate(1003.2710869217763 942.0465270077855) rotate(0 257.9999999999999 101.60298891351636)"><path d="M-0.43 -0.35 C142.77 -0.05, 285.71 -0.15, 515.34 0.6 M0.29 0.09 C133.2 -0.11, 265.95 0.34, 515.68 0.07 M517.57 -1.75 C517.92 82.05, 516.42 161.33, 515.42 201.69 M516.42 -0.49 C516.89 45.8, 517.75 92.13, 516.03 203.65 M516.44 203.11 C321.74 202.48, 127.92 202.24, 0.67 203.08 M516.26 203.52 C380.94 203.79, 245.96 203.51, -0.08 203.28 M-1.01 202.76 C-0.31 133.98, -0.74 67.07, 0.87 0.79 M-0.19 202.93 C0.12 136.82, 0.14 69.52, -0.18 -0.82" stroke="#000000" stroke-width="1" fill="none"></path></g><g transform="translate(1007.1235304086788 973.6495159213018) rotate(0 253 70)"><text x="253" y="24" font-family="Virgil, Segoe UI Emoji" font-size="28px" fill="#000000" text-anchor="middle" style="white-space: pre;" direction="ltr">Use the wait-on package to check </text><text x="253" y="59" font-family="Virgil, Segoe UI Emoji" font-size="28px" fill="#000000" text-anchor="middle" style="white-space: pre;" direction="ltr">status of TCP on port 3000 where</text><text x="253" y="94" font-family="Virgil, Segoe UI Emoji" font-size="28px" fill="#000000" text-anchor="middle" style="white-space: pre;" direction="ltr">the app will run. If it doesn't start</text><text x="253" y="129" font-family="Virgil, Segoe UI Emoji" font-size="28px" fill="#000000" text-anchor="middle" style="white-space: pre;" direction="ltr">in a set time, throw an error.</text></g><g stroke-linecap="round" transform="translate(1001.6453890914268 286.75204972152983) rotate(0 253.0000000000001 92.5)"><path d="M0.07 0.69 C103.63 -0.66, 205.67 -0.99, 506.68 -0.62 M-0.34 -0.37 C111.09 -0.55, 221.64 -0.51, 506.09 0.12 M507.77 -1.42 C507.19 66.57, 506.24 133.06, 506.37 184.63 M505.07 -0.18 C507.84 38.72, 507.2 79.01, 505.91 184.03 M505.92 185.77 C313.36 185.13, 118.77 185.57, 0.49 184.65 M505.98 185.23 C336.82 185.98, 167.71 185.58, -0.35 184.8 M-0.35 183.51 C0.59 114.5, 1.72 45.25, 1.38 1.73 M-0.85 185.51 C1.03 126.63, -0.41 67.68, 0.91 0.26" stroke="#000000" stroke-width="1" fill="none"></path></g><g transform="translate(1011.433736834995 291.75204972152983) rotate(0 243 87.5)"><text x="243" y="24" font-family="Virgil, Segoe UI Emoji" font-size="28px" fill="#000000" text-anchor="middle" style="white-space: pre;" direction="ltr">Create a tunnel URL to be used </text><text x="243" y="59" font-family="Virgil, Segoe UI Emoji" font-size="28px" fill="#000000" text-anchor="middle" style="white-space: pre;" direction="ltr">by the client to access the app's </text><text x="243" y="94" font-family="Virgil, Segoe UI Emoji" font-size="28px" fill="#000000" text-anchor="middle" style="white-space: pre;" direction="ltr">site over HTTPS.</text><text x="243" y="129" font-family="Virgil, Segoe UI Emoji" font-size="28px" fill="#000000" text-anchor="middle" style="white-space: pre;" direction="ltr">Send it to the backend to forward</text><text x="243" y="164" font-family="Virgil, Segoe UI Emoji" font-size="28px" fill="#000000" text-anchor="middle" style="white-space: pre;" direction="ltr">to the frontend.</text></g><g transform="translate(1656.4530712148455 888.0592672332338) rotate(0 694 70.5)"><text x="694" y="25.25" font-family="Virgil, Segoe UI Emoji" font-size="28px" fill="#000000" text-anchor="middle" style="white-space: pre;" direction="ltr">At any point if there is an error or a crash</text><text x="694" y="60.5" font-family="Virgil, Segoe UI Emoji" font-size="28px" fill="#000000" text-anchor="middle" style="white-space: pre;" direction="ltr">the frontend is notified of a CRASHED state and is told to break the connection from the socket.</text><text x="694" y="95.75" font-family="Virgil, Segoe UI Emoji" font-size="28px" fill="#000000" text-anchor="middle" style="white-space: pre;" direction="ltr"></text><text x="694" y="131" font-family="Virgil, Segoe UI Emoji" font-size="28px" fill="#000000" text-anchor="middle" style="white-space: pre;" direction="ltr">With the socket connections in the room having gone to 0, the EC2 instance is shut down.</text></g><g stroke-linecap="round"><g transform="translate(1501.5309885066902 11.974464282393456) rotate(0 63.01113812177482 0.5689139800097109)"><path d="M0.61 -1.97 C45.05 2.06, 92.52 2.81, 125.05 0.5 M0.06 0.03 C33.95 -0.82, 68.32 -0.17, 125.97 3.11" stroke="#000000" stroke-width="1" fill="none"></path></g></g><mask></mask><g stroke-linecap="round"><g transform="translate(1624.6575175586993 11.974464282393456) rotate(0 12.366784216837459 989.1657946888478)"><path d="M0.21 -0.43 C7.44 526.88, 12.57 1052.39, 24.29 1978.76 M0.29 -0.13 C10.38 395.57, 15.07 791.42, 24.52 1978.24" stroke="#000000" stroke-width="1" fill="none"></path></g></g><mask></mask><g stroke-linecap="round"><g transform="translate(1649.1729708327068 1988.2548676509994) rotate(0 -51.20327029205555 -0.09519115462899208)"><path d="M1.09 -0.94 C-22.6 0.91, -48.05 -2.14, -101.48 -0.19 M-0.3 0.75 C-23.87 0.49, -50.29 0.45, -103.5 0.02" stroke="#000000" stroke-width="1" fill="none"></path></g></g><mask></mask><g stroke-linecap="round" transform="translate(1004.7409025458644 1186.183807894517) rotate(0 256.5 99.24952390561333)"><path d="M-0.44 -0.17 C106.92 -0.22, 212.89 0.27, 512.74 -0.47 M0.4 -0.22 C204.97 0.55, 409.51 0.69, 512.79 0.09 M512.64 0.83 C514.45 67.98, 512.74 132.12, 514.61 199.13 M513.27 0.64 C513.26 59.18, 514.05 119.08, 512.59 199.01 M512.32 198.6 C314.69 197.11, 118.26 196.32, 0.56 198.73 M512.93 198.68 C344.07 199.9, 175.38 199.75, 0.23 198.54 M-0.89 198.26 C-1.99 157.32, -2.11 114.89, -1.27 -1.41 M0.52 198.02 C-0.87 126.58, -1.44 54.93, -0.94 0.95" stroke="#000000" stroke-width="1" fill="none"></path></g><g transform="translate(1010.4733731368935 1215.4333318001302) rotate(0 250.5 70)"><text x="250.5" y="24" font-family="Virgil, Segoe UI Emoji" font-size="28px" fill="#000000" text-anchor="middle" style="white-space: pre;" direction="ltr">If all the above is successful, tell </text><text x="250.5" y="59" font-family="Virgil, Segoe UI Emoji" font-size="28px" fill="#000000" text-anchor="middle" style="white-space: pre;" direction="ltr">the backend that the instance is in</text><text x="250.5" y="94" font-family="Virgil, Segoe UI Emoji" font-size="28px" fill="#000000" text-anchor="middle" style="white-space: pre;" direction="ltr">the READY state to forward it to</text><text x="250.5" y="129" font-family="Virgil, Segoe UI Emoji" font-size="28px" fill="#000000" text-anchor="middle" style="white-space: pre;" direction="ltr">the client and enable the iframe.</text></g><g stroke-linecap="round"><g transform="translate(694.0230752487764 1817.6044656272943) rotate(0 148.51169151836984 -810.3853607669803)"><path d="M-0.35 0.1 C60.3 -363.75, 126.91 -728.46, 297.38 -1620.68 M-0.2 -0.01 C63.96 -346.84, 127.23 -693.74, 296.87 -1620.87" stroke="#000000" stroke-width="1" fill="none"></path></g><g transform="translate(694.0230752487764 1817.6044656272943) rotate(0 148.51169151836984 -810.3853607669803)"><path d="M301 -1591.05 C300.46 -1596.27, 298.93 -1603.25, 298.34 -1621.15 M301.39 -1591.32 C300.85 -1597.52, 299.23 -1604.37, 297.07 -1621.61" stroke="#000000" stroke-width="1" fill="none"></path></g><g transform="translate(694.0230752487764 1817.6044656272943) rotate(0 148.51169151836984 -810.3853607669803)"><path d="M280.82 -1594.74 C284.86 -1599.11, 287.87 -1605.25, 298.34 -1621.15 M281.21 -1595.01 C284.98 -1600.45, 287.68 -1606.51, 297.07 -1621.61" stroke="#000000" stroke-width="1" fill="none"></path></g></g><mask></mask></svg>