<svg version="1.1" xmlns="http://www.w3.org/2000/svg" viewBox="0 0 2180.4494101758482 1531.8844741581006" width="2180.4494101758482" height="1531.8844741581006">
  <!-- svg-source:excalidraw -->
  
  <defs>
    <style class="style-fonts">
      @font-face {
        font-family: "Virgil";
        src: url("https://excalidraw.com/Virgil.woff2");
      }
      @font-face {
        font-family: "Cascadia";
        src: url("https://excalidraw.com/Cascadia.woff2");
      }
    </style>
  </defs>
  <rect x="0" y="0" width="2180.4494101758482" height="1531.8844741581006" fill="#ffffff"></rect><g stroke-linecap="round" transform="translate(10 614.1427651206815) rotate(0 222.96121951434566 239.51296401041105)"><path d="M0.48 -0.5 C158.74 -0.12, 315.63 0.49, 446.42 0.87 M0.25 -0.1 C102.24 -0.67, 205.2 -0.83, 445.94 -0.37 M445.77 0.03 C445.13 151.97, 444.24 304.48, 446.62 479.76 M445.55 0.41 C443.7 138.53, 443.84 277.4, 445.61 478.9 M445.9 479.82 C321.7 480.07, 198.42 479.79, -0.84 478.63 M446.4 478.8 C348.3 477.89, 251.47 477.82, 0.21 479.18 M-0.61 478.79 C2.42 288.22, 2.45 97.32, 0.87 0.63 M0.22 479.03 C1.56 298.56, 1.91 118.79, -0.33 -0.38" stroke="#000000" stroke-width="1" fill="none"></path></g><g transform="translate(19.461219514345657 818.6557291310926) rotate(0 213.5 35)"><text x="213.5" y="24" font-family="Virgil, Segoe UI Emoji" font-size="28px" fill="#000000" text-anchor="middle" style="white-space: pre;" direction="ltr">Client Device with Text Editor</text><text x="213.5" y="59" font-family="Virgil, Segoe UI Emoji" font-size="28px" fill="#000000" text-anchor="middle" style="white-space: pre;" direction="ltr">in browser</text></g><g stroke-linecap="round" transform="translate(892.1086390388941 376.577097940129) rotate(0 200.56771823641589 233.67116265930966)"><path d="M-0.2 -0.06 C151.9 1.75, 302.55 2.47, 400.49 -0.37 M0.09 -0.36 C122.41 0.38, 245.19 -0.16, 401.22 -0.06 M400.49 0.89 C400.3 105.97, 399.38 210.85, 400.43 467.04 M401.35 -0.35 C402.19 105.33, 401.73 210.65, 401.29 467.33 M400.3 466.9 C311.39 468.89, 222.16 469.08, -0.66 468.01 M401.52 467.36 C295.71 466.36, 189.06 466.39, -0.13 467.11 M-0.22 467.55 C-0.52 334.66, 0.61 202.52, 0.56 0.64 M0.26 467.18 C-0.58 329.9, -0.59 192.11, -0.42 -0.17" stroke="#000000" stroke-width="1" fill="none"></path></g><g transform="translate(986.17635727531 592.7482605994387) rotate(0 106.5 17.5)"><text x="106.5" y="24" font-family="Virgil, Segoe UI Emoji" font-size="28px" fill="#000000" text-anchor="middle" style="white-space: pre;" direction="ltr">Backend Server</text></g><g stroke-linecap="round" transform="translate(1769.3139737030162 1054.5421488394813) rotate(0 200.56771823641589 233.67116265930963)"><path d="M-0.57 0.77 C144.14 2.75, 288.49 1.3, 401.49 -0.27 M-0.48 -0.13 C103.96 -0.26, 207.75 0.45, 401.65 0.35 M400.42 0.52 C400.7 173.48, 401.19 346.61, 400.77 466.5 M401.11 -0.22 C402.12 123.28, 402.42 246.67, 401.34 467.38 M401.44 466.28 C253.85 466.39, 107.41 466.65, 0.68 467.95 M401.03 466.89 C256.36 466.85, 111.71 466.44, 0.05 467.32 M-0.3 466.78 C2.28 291.45, 1.35 114.13, -0.59 0.25 M0.04 467.15 C-0.97 289.66, -1.18 111.5, 0.04 0.24" stroke="#000000" stroke-width="1" fill="none"></path></g><g transform="translate(1844.3816919394321 1270.713311498791) rotate(0 125.5 17.5)"><text x="125.5" y="24" font-family="Virgil, Segoe UI Emoji" font-size="28px" fill="#000000" text-anchor="middle" style="white-space: pre;" direction="ltr">App Runner Server</text></g><g mask="url(#mask-IxVHfaJ6dxZdggUGjt5KC)" stroke-linecap="round"><g transform="translate(459.70173245460364 869.4051563918129) rotate(0 213.48912863245408 -138.03426803237406)"><path d="M-0.33 -0.31 C150.65 -95.57, 299.1 -190.37, 427.1 -275.59 M0.14 -0.12 C87.37 -56.27, 174.92 -112.64, 427.31 -275.95" stroke="#000000" stroke-width="1" fill="none"></path></g><g transform="translate(459.70173245460364 869.4051563918129) rotate(0 213.48912863245408 -138.03426803237406)"><path d="M408.39 -252.8 C417.2 -262, 422.19 -266.99, 426.54 -275.38 M409.56 -252.33 C412.63 -256.2, 416.44 -260.84, 427.05 -276.27" stroke="#000000" stroke-width="1" fill="none"></path></g><g transform="translate(459.70173245460364 869.4051563918129) rotate(0 213.48912863245408 -138.03426803237406)"><path d="M397.24 -270.04 C409.76 -273.15, 418.64 -272.13, 426.54 -275.38 M398.42 -269.56 C403.78 -269.91, 409.86 -271.02, 427.05 -276.27" stroke="#000000" stroke-width="1" fill="none"></path></g></g><mask id="mask-IxVHfaJ6dxZdggUGjt5KC"><rect x="0" y="0" fill="#fff" width="987.1094410402047" height="1245.2199323131915"></rect><rect x="500.4055867474042" y="661.4977684311235" fill="#000" width="346" height="140" opacity="1"></rect></mask><g transform="translate(500.4055867474042 661.4977684311235) rotate(0 172.78527433965354 69.87311992831528)"><text x="173" y="24" font-family="Virgil, Segoe UI Emoji" font-size="28px" fill="#000000" text-anchor="middle" style="white-space: pre;" direction="ltr">0. Makes REST </text><text x="173" y="59" font-family="Virgil, Segoe UI Emoji" font-size="28px" fill="#000000" text-anchor="middle" style="white-space: pre;" direction="ltr">API/Socket call for file </text><text x="173" y="94" font-family="Virgil, Segoe UI Emoji" font-size="28px" fill="#000000" text-anchor="middle" style="white-space: pre;" direction="ltr">update/create/delete </text><text x="173" y="129" font-family="Virgil, Segoe UI Emoji" font-size="28px" fill="#000000" text-anchor="middle" style="white-space: pre;" direction="ltr">operation</text></g><g mask="url(#mask-t3swZwOjv2SMI6517Wq8J)" stroke-linecap="round"><g transform="translate(1312.4114365526254 707.2850076835036) rotate(0 219.8709479810894 220.101884876773)"><path d="M0.36 -0.07 C127.41 127.84, 252.74 252.67, 439.76 439.88 M-0.02 0.1 C139.36 137.84, 277.44 275.96, 439.65 440.27" stroke="#000000" stroke-width="1" fill="none"></path></g><g transform="translate(1312.4114365526254 707.2850076835036) rotate(0 219.8709479810894 220.101884876773)"><path d="M413.41 427.29 C421.76 433.21, 428.24 434.34, 438.94 439.87 M412.48 427.72 C421.54 430.94, 430.46 435.46, 438.66 440.85" stroke="#000000" stroke-width="1" fill="none"></path></g><g transform="translate(1312.4114365526254 707.2850076835036) rotate(0 219.8709479810894 220.101884876773)"><path d="M427.99 412.85 C432.25 422.8, 434.56 428.06, 438.94 439.87 M427.06 413.28 C431.66 421.01, 436.01 430.06, 438.66 440.85" stroke="#000000" stroke-width="1" fill="none"></path></g></g><mask id="mask-t3swZwOjv2SMI6517Wq8J"><rect x="0" y="0" fill="#fff" width="1852.4518814952341" height="1247.3254526261126"></rect><rect x="1371.9316590239298" y="839.8052301548081" fill="#000" width="321" height="175" opacity="1"></rect></mask><g transform="translate(1371.93165902393 839.805230154808) rotate(0 160.35072550978504 87.58166240546856)"><text x="160.5" y="24" font-family="Virgil, Segoe UI Emoji" font-size="28px" fill="#000000" text-anchor="middle" style="white-space: pre;" direction="ltr">2. Passes file update </text><text x="160.5" y="59" font-family="Virgil, Segoe UI Emoji" font-size="28px" fill="#000000" text-anchor="middle" style="white-space: pre;" direction="ltr">operation after </text><text x="160.5" y="94" font-family="Virgil, Segoe UI Emoji" font-size="28px" fill="#000000" text-anchor="middle" style="white-space: pre;" direction="ltr">database level </text><text x="160.5" y="129" font-family="Virgil, Segoe UI Emoji" font-size="28px" fill="#000000" text-anchor="middle" style="white-space: pre;" direction="ltr">confirmation to the </text><text x="160.5" y="164" font-family="Virgil, Segoe UI Emoji" font-size="28px" fill="#000000" text-anchor="middle" style="white-space: pre;" direction="ltr">app-runner server.</text></g><g stroke-linecap="round"><g transform="translate(1905.871714531203 32.628596006167186) rotate(0 110.17160409092298 120.79431650177324)" fill-rule="evenodd"><path d="M1.49 -1.59 L1.98 218.98 L-2.12 242.47 L0.26 239.4 L3.84 249.67 L18.36 254.8 L52.44 259.77 L116.89 262.51 L182.78 259.39 L202.66 256.55 L219.43 245.38 L220.48 241.02 L222.86 242.87 L220.09 -1.59 L221.04 -1.09 L213.3 -7.07 L206.49 -12.59 L186.59 -16.79 L107.15 -22.07 L77.89 -24.16 L51.48 -17.86 L29.73 -16.77 L5.61 -7.51 L-1.96 0.47" stroke="none" stroke-width="0" fill="#12b886" fill-rule="evenodd"></path><path d="M-0.83 0.23 C-0.72 36.47, 0.54 176.69, 0.63 216.99 C0.73 257.28, -2.03 236.11, -0.27 242.01 C1.49 247.91, 2.77 249.28, 11.19 252.4 C19.61 255.51, 32.48 258.72, 50.25 260.69 C68.01 262.66, 95.8 264.33, 117.79 264.21 C139.77 264.09, 165.62 262.58, 182.16 259.94 C198.69 257.31, 210.29 251.73, 217.01 248.38 C223.73 245.04, 221.67 244.53, 222.48 239.89 C223.29 235.26, 222.08 257.54, 221.85 220.58 C221.62 183.62, 221.11 55.04, 221.09 18.15 C221.07 -18.75, 224.11 4.12, 221.73 -0.78 C219.35 -5.69, 214.47 -8.46, 206.82 -11.29 C199.18 -14.11, 192.53 -15.92, 175.88 -17.74 C159.22 -19.57, 127.26 -21.7, 106.91 -22.24 C86.55 -22.77, 70.03 -23.07, 53.75 -20.98 C37.46 -18.88, 18.22 -13.24, 9.2 -9.67 C0.17 -6.11, 1.12 -1.23, -0.4 0.4 C-1.92 2.04, 0.16 0.05, 0.08 0.14 M0.94 -0.69 C0.88 35.78, -0.01 177.81, -0.37 218.51 C-0.72 259.21, -3.14 237.65, -1.19 243.48 C0.75 249.31, 2.45 250.63, 11.3 253.5 C20.15 256.37, 33.99 259.08, 51.91 260.69 C69.84 262.3, 97.07 263.48, 118.84 263.15 C140.6 262.82, 166.3 261.27, 182.5 258.7 C198.7 256.12, 209.61 251.08, 216.06 247.71 C222.52 244.34, 220.18 243.03, 221.23 238.48 C222.28 233.92, 222.39 256.96, 222.35 220.4 C222.32 183.83, 221.27 56.03, 221.03 19.1 C220.79 -17.82, 223.18 4.02, 220.89 -1.16 C218.61 -6.35, 214.96 -9.19, 207.31 -11.99 C199.65 -14.79, 191.72 -16.21, 174.97 -17.96 C158.22 -19.7, 127.37 -22.05, 106.81 -22.45 C86.26 -22.85, 68.16 -22.57, 51.65 -20.35 C35.14 -18.13, 16.68 -12.69, 7.77 -9.13 C-1.14 -5.56, -0.33 -0.55, -1.84 1.05 C-3.34 2.65, -1.43 0.7, -1.26 0.48" stroke="#087f5b" stroke-width="1" fill="none"></path></g></g><mask></mask><g stroke-linecap="round"><g transform="translate(1907.6051628633331 197.28292826567497) rotate(0 111.63648566164102 11.13992219278964)"><path d="M0.23 -0.1 C1.28 1.63, 0.63 6.56, 5.84 9.55 C11.04 12.54, 21.63 15.75, 31.46 17.85 C41.29 19.95, 50.61 21.29, 64.84 22.12 C79.07 22.96, 97.8 23.27, 116.84 22.88 C135.89 22.5, 162.7 22.14, 179.11 19.82 C195.51 17.49, 208.12 12.3, 215.28 8.94 C222.44 5.59, 220.85 1.43, 222.08 -0.33 M-1.11 -1.2 C-0.19 0.78, -0.45 7.55, 4.88 10.93 C10.2 14.3, 20.81 17.06, 30.84 19.03 C40.88 20.99, 50.45 22.06, 65.09 22.71 C79.72 23.35, 99.41 23, 118.64 22.91 C137.88 22.81, 164.27 24.68, 180.5 22.14 C196.73 19.6, 208.71 11.41, 216.03 7.68 C223.34 3.94, 223.56 0.97, 224.38 -0.25" stroke="#087f5b" stroke-width="1" fill="none"></path></g></g><mask></mask><g stroke-linecap="round"><g transform="translate(1904.846870242923 113.87364421743848) rotate(0 110.94692882317145 11.280138624098868)"><path d="M-0.1 -0.03 C0.97 1.62, 0.4 7.11, 5.56 10.14 C10.73 13.16, 21.19 16.07, 30.91 18.11 C40.62 20.15, 49.52 21.47, 63.85 22.37 C78.18 23.28, 97.77 23.84, 116.9 23.54 C136.02 23.24, 162.18 23.14, 178.57 20.58 C194.96 18.02, 207.75 11.8, 215.24 8.17 C222.73 4.54, 222.35 0.27, 223.51 -1.2 M-1.61 -1.09 C-0.66 0.16, -0.81 4.75, 4.46 8.17 C9.73 11.59, 20.15 16.94, 30 19.43 C39.85 21.92, 48.79 22.34, 63.57 23.09 C78.36 23.84, 99.37 24.49, 118.72 23.91 C138.07 23.34, 163.48 21.93, 179.69 19.64 C195.89 17.34, 208.76 13.69, 215.96 10.15 C223.16 6.62, 221.58 0.41, 222.9 -1.57" stroke="#087f5b" stroke-width="1" fill="none"></path></g></g><mask></mask><g stroke-linecap="round" transform="translate(1902.0202819586382 12.391218033268501) rotate(0 110.52264337530596 22.352373126668226)"><path d="M89.04 0.03 C102.95 -1.03, 120.55 -0.82, 135.11 -0.09 C149.67 0.63, 164.5 2.36, 176.4 4.37 C188.3 6.38, 199.23 9.21, 206.5 11.98 C213.77 14.75, 218.49 18.01, 220.01 21.01 C221.54 24.01, 220.35 27.26, 215.64 29.97 C210.93 32.68, 201.96 34.96, 191.74 37.25 C181.52 39.53, 168.02 42.53, 154.32 43.7 C140.61 44.87, 124.46 44.47, 109.51 44.26 C94.56 44.04, 78.22 43.52, 64.63 42.42 C51.03 41.31, 37.79 39.77, 27.93 37.65 C18.07 35.52, 9.93 32.67, 5.47 29.67 C1.01 26.67, -0.63 22.88, 1.15 19.64 C2.93 16.4, 8.68 12.72, 16.17 10.24 C23.65 7.77, 32.54 6.33, 46.06 4.78 C59.58 3.23, 87.7 1.53, 97.29 0.95 C106.88 0.37, 103.5 0.96, 103.58 1.31 M107.72 0.14 C121.68 -0.05, 138.06 0.79, 152.18 1.97 C166.31 3.14, 181.95 5.12, 192.5 7.19 C203.04 9.26, 210.55 11.43, 215.46 14.4 C220.37 17.36, 223.09 21.61, 221.95 24.97 C220.81 28.34, 216.02 31.89, 208.63 34.61 C201.25 37.33, 189.88 39.92, 177.64 41.29 C165.41 42.65, 149.61 42.23, 135.22 42.78 C120.84 43.34, 105.8 45.19, 91.33 44.63 C76.87 44.07, 61.05 41.43, 48.42 39.44 C35.8 37.45, 23.6 35.13, 15.57 32.68 C7.54 30.23, 2.03 27.61, 0.24 24.77 C-1.56 21.92, 0.15 18.48, 4.83 15.62 C9.5 12.76, 18.48 10.04, 28.28 7.62 C38.09 5.19, 50.58 2.31, 63.68 1.07 C76.79 -0.16, 99.67 0.15, 106.93 0.21 C114.2 0.27, 107.18 1.28, 107.27 1.44" stroke="none" stroke-width="0" fill="#12b886"></path><path d="M122.96 -0.46 C137.23 -0.45, 153.77 1.46, 166.69 3.14 C179.61 4.83, 191.73 7.26, 200.46 9.66 C209.2 12.05, 216.02 14.58, 219.1 17.52 C222.18 20.46, 222.36 24.18, 218.93 27.29 C215.49 30.4, 207.7 33.78, 198.5 36.2 C189.29 38.62, 176.55 40.42, 163.68 41.83 C150.81 43.25, 136.04 44.37, 121.28 44.68 C106.52 45, 89.52 44.7, 75.14 43.7 C60.76 42.7, 46.14 40.7, 34.98 38.69 C23.82 36.69, 13.89 34.62, 8.2 31.67 C2.51 28.72, 0.55 24.19, 0.85 21.02 C1.15 17.84, 3.87 15.14, 10 12.63 C16.12 10.11, 26.27 7.87, 37.62 5.95 C48.97 4.03, 62.61 1.9, 78.08 1.11 C93.55 0.32, 120.34 1.32, 130.43 1.2 C140.51 1.07, 138.71 -0.04, 138.59 0.36 M60.25 2.79 C72.44 1.05, 92.07 -0.24, 107.23 -0.29 C122.39 -0.34, 137.71 1.51, 151.22 2.48 C164.74 3.45, 178.05 3.51, 188.32 5.53 C198.59 7.56, 207.48 11.69, 212.85 14.62 C218.22 17.56, 221.05 20.22, 220.55 23.14 C220.05 26.06, 216.93 29.53, 209.83 32.13 C202.73 34.73, 189.72 36.72, 177.96 38.77 C166.2 40.81, 153.38 43.69, 139.24 44.38 C125.11 45.07, 107.92 43.51, 93.14 42.89 C78.35 42.28, 63.32 42.36, 50.53 40.68 C37.75 39, 24.66 35.31, 16.43 32.82 C8.19 30.32, 3.31 28.49, 1.12 25.71 C-1.07 22.93, -0.69 19.13, 3.3 16.12 C7.3 13.12, 15.29 10.06, 25.09 7.67 C34.89 5.27, 56.1 2.74, 62.1 1.75 C68.1 0.77, 60.13 1.16, 61.09 1.77" stroke="#087f5b" stroke-width="1" fill="none"></path></g><g stroke-linecap="round" transform="translate(2082.359754052429 74.36861851512356) rotate(0 16.19815283744424 17.579954446842635)"><path d="M11.07 0.21 C14.06 -1.37, 19.14 -0.47, 22.22 0.74 C25.3 1.94, 27.89 4.18, 29.55 7.44 C31.21 10.7, 32.71 16.43, 32.18 20.3 C31.65 24.17, 29.01 28.22, 26.37 30.65 C23.73 33.08, 19.66 34.83, 16.35 34.88 C13.03 34.92, 9.32 33.34, 6.49 30.93 C3.67 28.52, -0.01 23.92, -0.6 20.4 C-1.19 16.89, 1.15 13.03, 2.95 9.86 C4.76 6.7, 8.77 3.07, 10.23 1.42 C11.69 -0.23, 11.42 -0.35, 11.7 -0.05 M13.16 0.41 C16.1 -0.25, 20.65 1.06, 23.53 3.02 C26.41 4.98, 29.01 8.71, 30.43 12.17 C31.84 15.63, 33.04 20.44, 32.01 23.77 C30.98 27.1, 27.38 30.08, 24.27 32.17 C21.17 34.26, 16.77 36.86, 13.37 36.29 C9.98 35.72, 6.17 31.81, 3.89 28.73 C1.61 25.66, -0.24 21.38, -0.31 17.84 C-0.38 14.3, 1.24 10.27, 3.49 7.51 C5.75 4.74, 11.55 2.43, 13.22 1.25 C14.89 0.06, 13.29 0.47, 13.51 0.42" stroke="none" stroke-width="0" fill="#ced4da"></path><path d="M13.8 -0.47 C17.05 -1.03, 22.14 0.27, 25.16 2.48 C28.17 4.69, 31.01 8.96, 31.9 12.77 C32.8 16.57, 31.94 21.96, 30.51 25.32 C29.08 28.67, 26.28 31.46, 23.32 32.92 C20.37 34.38, 16.16 34.72, 12.79 34.05 C9.42 33.38, 5.21 31.77, 3.09 28.91 C0.98 26.04, -0.16 20.81, 0.1 16.85 C0.37 12.88, 1.9 8.03, 4.69 5.12 C7.47 2.2, 14.28 -0.05, 16.79 -0.66 C19.29 -1.26, 19.86 1.13, 19.69 1.49 M13.73 0.4 C16.84 -0.3, 20.29 2, 23.44 3.7 C26.59 5.4, 31.15 7.02, 32.62 10.63 C34.09 14.23, 33.92 21.57, 32.27 25.32 C30.61 29.06, 25.78 31.71, 22.7 33.09 C19.62 34.47, 16.89 34.15, 13.79 33.61 C10.69 33.08, 6.45 32.63, 4.1 29.89 C1.75 27.16, -0.43 21.4, -0.3 17.22 C-0.18 13.04, 2.73 7.88, 4.85 4.83 C6.97 1.78, 10.96 -0.33, 12.44 -1.08 C13.92 -1.84, 13.59 -0.44, 13.72 0.3" stroke="#087f5b" stroke-width="1" fill="none"></path></g><g stroke-linecap="round" transform="translate(2082.359754052429 151.5445524218535) rotate(0 16.19815283744424 17.579954446842635)"><path d="M22.22 2.58 C25.21 3.72, 29.34 6.57, 30.77 9.86 C32.2 13.14, 31.69 18.67, 30.8 22.29 C29.91 25.91, 28.13 29.47, 25.41 31.56 C22.69 33.66, 17.98 35.06, 14.47 34.84 C10.96 34.63, 6.8 33.08, 4.33 30.28 C1.87 27.47, -0.01 21.66, -0.33 17.99 C-0.65 14.33, 0.2 11.36, 2.4 8.3 C4.61 5.24, 9.22 0.72, 12.9 -0.38 C16.58 -1.47, 22.73 1.16, 24.5 1.74 C26.27 2.33, 23.63 2.88, 23.53 3.14 M22.73 1.28 C26.15 2.32, 29.98 5.57, 31.72 9.04 C33.47 12.52, 34.03 18.45, 33.18 22.14 C32.33 25.83, 29.66 29.13, 26.61 31.18 C23.56 33.24, 18.25 34.68, 14.86 34.48 C11.48 34.27, 8.86 32.51, 6.29 29.96 C3.72 27.41, 0.09 22.85, -0.58 19.17 C-1.24 15.5, 0.14 10.92, 2.29 7.92 C4.45 4.92, 8.8 2.12, 12.35 1.16 C15.9 0.2, 21.91 1.83, 23.56 2.17 C25.22 2.52, 22.71 3.13, 22.26 3.25" stroke="none" stroke-width="0" fill="#ced4da"></path><path d="M15.62 -0.03 C18.97 -0.12, 23.35 1.93, 26.13 4.27 C28.91 6.61, 31.48 10.32, 32.27 14 C33.07 17.67, 32.72 22.89, 30.9 26.31 C29.07 29.73, 24.8 33.24, 21.32 34.53 C17.85 35.82, 13.1 35.4, 10.06 34.05 C7.02 32.71, 4.66 29.66, 3.09 26.44 C1.52 23.22, 0.25 18.46, 0.65 14.73 C1.04 11, 2.64 6.42, 5.46 4.08 C8.28 1.74, 14.98 1.38, 17.57 0.69 C20.16 -0.01, 20.97 -0.23, 21 -0.09 M14.48 -0.95 C17.82 -1.43, 23.62 1.6, 26.29 4 C28.96 6.4, 29.47 10.26, 30.52 13.45 C31.56 16.64, 33.7 19.73, 32.55 23.14 C31.4 26.56, 27.19 31.93, 23.64 33.93 C20.09 35.94, 14.45 36.18, 11.25 35.16 C8.05 34.13, 6.33 30.74, 4.44 27.79 C2.55 24.84, 0.15 21.39, -0.06 17.48 C-0.28 13.57, 0.98 7.22, 3.16 4.34 C5.33 1.45, 11.18 0.91, 12.99 0.16 C14.81 -0.59, 13.58 -0.35, 14.07 -0.17" stroke="#087f5b" stroke-width="1" fill="none"></path></g><g stroke-linecap="round" transform="translate(2082.359754052429 235.4245381559988) rotate(0 17 22.5)"><path d="M19.94 -0.01 C23.2 0.27, 26.64 2.61, 28.97 6.19 C31.31 9.76, 33.77 16.48, 33.94 21.43 C34.12 26.39, 32.26 32.15, 30.03 35.94 C27.8 39.72, 23.96 43.12, 20.57 44.15 C17.17 45.19, 13.02 44.41, 9.67 42.15 C6.31 39.9, 1.75 34.88, 0.42 30.62 C-0.9 26.37, 0.65 21.01, 1.72 16.6 C2.79 12.19, 3.57 6.94, 6.84 4.16 C10.11 1.37, 18.42 0.06, 21.35 -0.09 C24.27 -0.23, 24.46 2.63, 24.37 3.3 M11.64 2.06 C14.67 0.6, 19.23 1.13, 22.7 2.94 C26.17 4.74, 30.72 8.87, 32.44 12.89 C34.16 16.91, 33.98 22.25, 33.03 27.03 C32.08 31.82, 29.58 38.72, 26.74 41.6 C23.9 44.48, 19.57 44.79, 15.99 44.31 C12.4 43.82, 7.85 41.72, 5.23 38.69 C2.61 35.67, 0.61 30.75, 0.26 26.18 C-0.1 21.62, 1.05 15.55, 3.1 11.31 C5.14 7.07, 10.82 2.57, 12.53 0.73 C14.24 -1.1, 13.45 -0.26, 13.38 0.3" stroke="none" stroke-width="0" fill="#ced4da"></path><path d="M10.14 1.42 C13.35 -0.56, 18.51 -0.52, 21.93 1.03 C25.34 2.57, 28.63 6.76, 30.62 10.68 C32.6 14.6, 34.09 19.97, 33.85 24.55 C33.61 29.13, 31.81 34.6, 29.18 38.16 C26.54 41.71, 21.75 45.39, 18.05 45.87 C14.36 46.35, 9.9 44.1, 7.01 41.04 C4.11 37.98, 1.56 32.38, 0.68 27.51 C-0.2 22.65, -0.29 16.16, 1.72 11.87 C3.73 7.57, 10.81 3.65, 12.75 1.75 C14.7 -0.16, 13.46 0.27, 13.4 0.45 M19.66 1.76 C23.26 2.25, 29.1 3.79, 31.64 7.67 C34.18 11.55, 35.5 19.99, 34.92 25.03 C34.33 30.07, 30.63 34.82, 28.11 37.91 C25.6 41, 23.12 42.8, 19.81 43.59 C16.51 44.38, 11.51 45.07, 8.28 42.66 C5.06 40.24, 1.48 34.12, 0.46 29.1 C-0.55 24.09, 0.96 17.22, 2.21 12.57 C3.47 7.92, 4.91 3.25, 8.01 1.2 C11.1 -0.85, 18.77 0.08, 20.78 0.28 C22.78 0.48, 20.19 2.18, 20.03 2.4" stroke="#087f5b" stroke-width="1" fill="none"></path></g><g mask="url(#mask-ZK80KlkdeJxFvuyh-DLOB)" stroke-linecap="round"><g transform="translate(1311.3587727762945 469.36853721327816) rotate(0 295.9174849934461 -158.85760629669755)"><path d="M-0.2 0.33 C125.72 -66.11, 250.58 -133.77, 592.04 -317.23 M0 -0.34 C185.82 -100.84, 370.38 -200.47, 591.97 -318.05" stroke="#000000" stroke-width="1" fill="none"></path></g><g transform="translate(1311.3587727762945 469.36853721327816) rotate(0 295.9174849934461 -158.85760629669755)"><path d="M19.31 -21.18 C17.25 -18.67, 11.04 -14.28, 0.8 2.06 M19.81 -22.87 C14.31 -14.45, 7.18 -8.14, 0.64 0.02" stroke="#000000" stroke-width="1" fill="none"></path></g><g transform="translate(1311.3587727762945 469.36853721327816) rotate(0 295.9174849934461 -158.85760629669755)"><path d="M29 -3.09 C24.79 -4.5, 16.53 -3.95, 0.8 2.06 M29.5 -4.77 C21.05 -1.95, 10.9 -1.29, 0.64 0.02" stroke="#000000" stroke-width="1" fill="none"></path></g><g transform="translate(1311.3587727762945 469.36853721327816) rotate(0 295.9174849934461 -158.85760629669755)"><path d="M571.41 -294.9 C577.66 -301.55, 579.97 -306.65, 592.97 -316.32 M571.91 -296.59 C579.14 -302.41, 584.53 -310.06, 592.81 -318.36" stroke="#000000" stroke-width="1" fill="none"></path></g><g transform="translate(1311.3587727762945 469.36853721327816) rotate(0 295.9174849934461 -158.85760629669755)"><path d="M561.76 -313.01 C570.14 -315.74, 574.49 -316.99, 592.97 -316.32 M562.27 -314.7 C572.42 -314.93, 580.83 -316.92, 592.81 -318.36" stroke="#000000" stroke-width="1" fill="none"></path></g></g><mask id="mask-ZK80KlkdeJxFvuyh-DLOB"><rect x="0" y="0" fill="#fff" width="2002.9918612427366" height="887.2924664513926"></rect><rect x="1367.1753170095155" y="275.40657259422096" fill="#000" width="480" height="70" opacity="1"></rect></mask><g transform="translate(1367.1753170095155 275.40657259422096) rotate(0 240.10094076022506 35.104358322359644)"><text x="240" y="24" font-family="Virgil, Segoe UI Emoji" font-size="28px" fill="#000000" text-anchor="middle" style="white-space: pre;" direction="ltr">1. Sends the file operation to the </text><text x="240" y="59" font-family="Virgil, Segoe UI Emoji" font-size="28px" fill="#000000" text-anchor="middle" style="white-space: pre;" direction="ltr">database for storage.</text></g><g mask="url(#mask-tEwOvC7B-iKyn6VbC_09d)" stroke-linecap="round"><g transform="translate(1747.188177093061 1343.1328661597324) rotate(0 -636.9267340648246 -166.32766542282388)"><path d="M-0.27 -0.52 C-453.63 -123.35, -909.27 -243.23, -1273.39 -332.68 M-0.04 0.26 C-315.49 -84.44, -632.01 -167.44, -1273.81 -332.91" stroke="#000000" stroke-width="1" fill="none"></path></g><g transform="translate(1747.188177093061 1343.1328661597324) rotate(0 -636.9267340648246 -166.32766542282388)"><path d="M-30.83 0.88 C-17.78 2.38, -7.27 -0.84, 0.76 -0.57 M-30.25 2.83 C-21.86 2.46, -14.96 0.79, -0.3 -1.15" stroke="#000000" stroke-width="1" fill="none"></path></g><g transform="translate(1747.188177093061 1343.1328661597324) rotate(0 -636.9267340648246 -166.32766542282388)"><path d="M-25.58 -18.96 C-14.6 -10.41, -5.96 -6.53, 0.76 -0.57 M-25.01 -17 C-17.98 -12.48, -12.39 -9.21, -0.3 -1.15" stroke="#000000" stroke-width="1" fill="none"></path></g><g transform="translate(1747.188177093061 1343.1328661597324) rotate(0 -636.9267340648246 -166.32766542282388)"><path d="M-1244.63 -337.1 C-1253 -334.15, -1263.85 -335.37, -1272.78 -332.96 M-1244.05 -335.14 C-1250.51 -334.38, -1258.45 -334.66, -1273.84 -333.54" stroke="#000000" stroke-width="1" fill="none"></path></g><g transform="translate(1747.188177093061 1343.1328661597324) rotate(0 -636.9267340648246 -166.32766542282388)"><path d="M-1249.77 -317.23 C-1256.11 -321.34, -1265.12 -329.67, -1272.78 -332.96 M-1249.19 -315.27 C-1254.3 -319.43, -1260.96 -324.64, -1273.84 -333.54" stroke="#000000" stroke-width="1" fill="none"></path></g></g><mask id="mask-tEwOvC7B-iKyn6VbC_09d"><rect x="0" y="0" fill="#fff" width="3120.9891252180505" height="1775.7950520677755"></rect><rect x="513.2877030305665" y="1141.801773205711" fill="#000" width="1194" height="70" opacity="1"></rect></mask><g transform="translate(513.2877030305664 1141.801773205711) rotate(0 596.9737399976701 35.003427531197644)"><text x="597" y="24" font-family="Virgil, Segoe UI Emoji" font-size="28px" fill="#000000" text-anchor="middle" style="white-space: pre;" direction="ltr">3. Makes the file change on the Instance File System and sends over logs.</text><text x="597" y="59" font-family="Virgil, Segoe UI Emoji" font-size="28px" fill="#000000" text-anchor="middle" style="white-space: pre;" direction="ltr">4. The HMR running for the app internally takes care of the reload inside the Iframe</text></g><g stroke-linecap="round"><g transform="translate(986.0658115833451 855.1933279901796) rotate(0 378.7100843615251 244.1804449149154)"><path d="M-0.51 0.28 C168.16 103.96, 333.92 211.15, 757.68 488.56 M0.36 -0.2 C249.55 162.34, 500.72 324.15, 757.93 488.15" stroke="#000000" stroke-width="1" fill="none"></path></g><g transform="translate(986.0658115833451 855.1933279901796) rotate(0 378.7100843615251 244.1804449149154)"><path d="M27.51 7.47 C22.35 4.89, 14.56 3.5, -1.21 0.52 M29.69 6.28 C19.38 5.08, 9.21 2.49, -0.6 -0.51" stroke="#000000" stroke-width="1" fill="none"></path></g><g transform="translate(986.0658115833451 855.1933279901796) rotate(0 378.7100843615251 244.1804449149154)"><path d="M16.48 24.78 C13.57 18.3, 8.21 13.1, -1.21 0.52 M18.66 23.58 C12.18 16.65, 5.67 8.32, -0.6 -0.51" stroke="#000000" stroke-width="1" fill="none"></path></g><g transform="translate(986.0658115833451 855.1933279901796) rotate(0 378.7100843615251 244.1804449149154)"><path d="M727.38 482.3 C735.19 482.02, 740.25 483.49, 757.23 488.39 M729.56 481.1 C738.54 484.26, 747.8 486, 757.84 487.36" stroke="#000000" stroke-width="1" fill="none"></path></g><g transform="translate(986.0658115833451 855.1933279901796) rotate(0 378.7100843615251 244.1804449149154)"><path d="M738.44 465.01 C743.98 468.63, 746.62 473.89, 757.23 488.39 M740.61 463.82 C745.76 472.7, 751.35 480.17, 757.84 487.36" stroke="#000000" stroke-width="1" fill="none"></path></g></g><mask></mask></svg>